<svg width="371" height="173" viewBox="0 0 371 173" fill="none" xmlns="http://www.w3.org/2000/svg">
<path d="M109.37 145.876C105.033 141.305 97.1945 128.166 93.737 122.553C87.09 111.564 80.2015 100.723 73.0765 90.0375C54.4735 62.168 32.9895 36.745 10.758 11.7425C7.237 7.78351 3.7005 3.792 0 0C18.4715 6.8385 37.0215 15.809 55.6075 22.7235C62.96 25.459 62.7625 30.628 65.9295 36.647C78.067 59.714 102.464 73.7 125.706 83.536C180.322 106.708 238.652 111.112 297.292 112.449C295.677 112.815 294.382 113.05 292.737 113.28L292.718 113.46C293.768 113.578 294.138 113.626 295.153 113.911L295.432 114.307C230.282 116.094 153.359 106.101 95.864 72.901C83.1975 65.587 69.349 58.246 62.816 44.6545C61.3335 41.609 55.606 27.9835 54.599 27.6825C45.2255 24.881 22.5175 14.108 14.081 10.4895C42.651 39.3635 67.959 74.797 89.595 109.064C98.447 123.084 106.451 138.03 118.497 149.688C122.601 153.64 128.867 157.427 133.761 160.373C131.812 161.668 129.069 161.047 126.637 161.359C125.95 161.345 124.816 161.107 124.093 160.979C120.731 157.923 115.882 154.165 113.177 150.757C91.3275 150.735 69.4795 150.436 47.638 149.859C47.89 149.165 48.445 148.532 48.9 147.929C56.5525 147.832 64.193 147.273 71.874 147.035C83.489 146.674 97.9865 147.192 109.37 145.876Z" fill="#E6677C"/>
<path d="M174.317 110.883L174.337 110.397C175.152 109.786 179.212 111.486 181.942 111.426L183.232 109.751C216.767 116.116 250.752 119.807 284.872 120.79C295.857 121.214 307.247 121.067 318.247 121.414C322.142 121.537 329.602 121.334 333.222 121.797L333.642 122.898C289.137 123.601 243.337 123.107 199.337 115.966C192.437 114.846 180.947 112.883 174.317 110.883Z" fill="#E6677C"/>
<path d="M137.737 97.0481C147.061 100.359 156.529 103.25 166.113 105.714C171.713 107.144 177.778 108.236 183.233 109.751L181.943 111.426C179.213 111.486 175.153 109.787 174.338 110.398L174.318 110.884C163.168 108.418 147.679 103.325 137.22 98.8611L137.737 97.0481Z" fill="#E6677C"/>
<path d="M297.293 112.449C305.573 112.265 313.853 112.594 322.138 112.635C328.928 112.669 335.793 112.341 342.558 112.43C342.013 113.538 341.653 113.348 340.173 113.869C325.268 114.443 310.348 114.589 295.433 114.307L295.153 113.912C294.138 113.627 293.768 113.579 292.718 113.46L292.738 113.28C294.383 113.051 295.678 112.815 297.293 112.449Z" fill="#E6677C"/>
<path d="M112.058 122.107C111.524 121.641 111.001 121.163 110.487 120.674C104.152 114.647 83.6224 88.0196 83.4604 80.6511C84.2254 81.1936 86.0974 85.7581 86.8369 86.9756C94.6169 99.7826 102.441 110.864 112.98 121.62L112.058 122.107Z" fill="#E6677C"/>
<path d="M342.557 112.43C350.882 112.18 362.317 112.061 370.617 112.367C366.882 113.499 345.097 113.868 340.172 113.869C341.652 113.348 342.012 113.537 342.557 112.43Z" fill="#E6677C"/>
<path d="M122.122 90.9316C126.962 93.1851 133.649 95.0541 137.737 97.0481L137.22 98.8611C132.409 97.1671 125.76 94.0221 121.269 91.7341L122.122 90.9316Z" fill="#E6677C"/>
<path d="M333.223 121.797C338.583 121.706 356.098 121.22 360.388 122.063C355.033 122.951 339.863 122.825 333.643 122.898L333.223 121.797Z" fill="#E6677C"/>
<path d="M122.317 159.883L122.337 159.397C123.152 158.786 127.212 160.486 129.942 160.426L131.232 158.751C164.767 165.116 198.752 168.807 232.872 169.79C243.857 170.214 255.247 170.067 266.247 170.414C270.142 170.537 277.602 170.334 281.222 170.797L281.642 171.898C237.137 172.601 191.337 172.107 147.337 164.966C140.437 163.846 128.947 161.883 122.317 159.883Z" fill="#E6677C"/>
<path d="M281.223 170.797C286.583 170.706 304.098 170.22 308.388 171.063C303.033 171.951 287.863 171.825 281.643 171.898L281.223 170.797Z" fill="#E6677C"/>
<path d="M121.269 91.7339C118.154 90.3919 102.524 83.0959 101.806 80.8674C108.629 84.8154 114.97 87.675 122.122 90.9315L121.269 91.7339Z" fill="#E6677C"/>
<path d="M112.981 121.62C114.059 122.575 116.068 124.061 116.349 125.316C114.745 124.986 113.294 123.295 112.059 122.107L112.981 121.62Z" fill="#E6677C"/>
</svg>
