<svg width="162" height="160" viewBox="0 0 162 160" fill="none" xmlns="http://www.w3.org/2000/svg">
<path d="M75.4646 34.315C100.835 31.063 124.035 48.994 127.285 74.3635C130.535 99.7335 112.605 122.935 87.2347 126.185C61.8647 129.435 38.6647 111.504 35.4147 86.136C32.1647 60.767 50.0946 37.5665 75.4646 34.315Z" fill="#E6677C"/>
<path d="M29.5649 94.9319L30.5249 95.2209C31.1149 96.2964 31.2999 97.0054 31.2949 98.2324C29.2549 100.565 9.83989 104.763 5.63489 105.848L4.50488 105.828C5.97488 103.786 25.7049 96.5149 29.5649 94.9319Z" fill="#E6677C"/>
<path d="M25.2549 78.2019C26.1049 78.0894 26.825 78.1439 27.67 78.2499L28.515 79.5459C28.57 80.7494 28.69 81.0199 28.02 81.9924C22.725 83.5334 11.225 81.3934 5.34998 80.8509C3.60498 80.8009 1.735 80.3534 0 80.0884C8.35 79.0034 16.8499 78.6044 25.2549 78.2019Z" fill="#E6677C"/>
<path d="M134.27 78.0679C140.415 78.3429 155.735 78.4654 161.075 80.1869L160.365 80.5389C155.035 81.6104 140.425 82.8809 134.91 82.2859C134.025 81.0979 134.265 79.4909 134.27 78.0679Z" fill="#E6677C"/>
<path d="M132.545 94.603C141.005 98.09 150.165 101.217 158.2 105.557L157.785 105.986C151.99 104.657 135.77 101.157 131.425 98.339C131.27 97.164 132.105 95.691 132.545 94.603Z" fill="#E6677C"/>
<path d="M106.89 2.49707C107.12 5.82807 101.495 25.7001 100.19 29.7636C99.1597 30.7336 99.0748 30.4111 97.3098 30.4046C95.2698 27.7401 105.38 6.08907 106.89 2.49707Z" fill="#E6677C"/>
<path d="M99.3647 129.84L100.15 130.427C102.005 136.17 106.995 151.68 107.22 157.069L106.695 156.842C103.64 149.61 98.0647 138.861 96.5547 131.587C97.2497 130.349 98.0597 130.33 99.3647 129.84Z" fill="#E6677C"/>
<path d="M55.5747 3.32788C57.0997 4.38038 66.1247 27.3274 66.1947 29.3519C64.9547 29.9274 64.3747 30.3024 62.9797 30.2594C61.0647 27.7584 56.4397 7.44538 55.5747 3.32788Z" fill="#E6677C"/>
<path d="M3.5 54.48C6.25 54.495 27.5 60.278 30.95 61.7255C31.46 63.22 31.115 63.397 30.715 65.203C28.35 65.6285 6.97 56.061 3.5 54.48Z" fill="#E6677C"/>
<path d="M14.8545 31.9409C17.4745 32.8579 36.3445 44.8029 39.1145 47.7429C39.4395 48.0889 38.7245 49.4604 38.4495 50.1604L37.5995 50.5769C35.6795 50.3384 17.3895 34.3819 14.8545 31.9409Z" fill="#E6677C"/>
<path d="M124.98 109.751C128.905 111.372 143.565 124.454 147.045 128.029L146.645 128.248C139.895 124.187 128.925 117.994 123.41 112.845C123.4 111.71 124.36 110.662 124.98 109.751Z" fill="#E6677C"/>
<path d="M157.13 54.6255L158.01 54.7635C155.625 56.3485 136.56 63.9365 132.88 65.3745L132.345 65.1275C131.17 63.5065 131.35 64.245 131.58 62.38C133.89 60.109 153.105 55.661 157.13 54.6255Z" fill="#E6677C"/>
<path d="M62.8148 129.833C64.1198 130.21 65.6048 130.373 66.2798 131.579C64.2648 139.192 60.0849 147.041 57.0599 154.337L55.8798 156.43C54.9348 154.295 61.6148 133.588 62.8148 129.833Z" fill="#E6677C"/>
<path d="M37.0696 109.833C37.3496 109.904 37.6096 109.958 37.8446 110.145C38.8546 110.955 38.9696 111.352 39.0296 112.552C36.3296 116.789 22.6646 123.947 17.7046 127.155L16.5996 127.716L16.6546 127.156C22.9046 120.922 30.2546 115.446 37.0696 109.833Z" fill="#E6677C"/>
<path d="M79.2847 132.916C80.6347 132.882 81.8097 132.768 83.0397 133.45C83.9747 138.294 82.1546 153.553 81.8146 159.356C81.5796 159.713 81.5197 159.755 81.1647 159.954C80.0997 150.977 79.4697 141.954 79.2847 132.916Z" fill="#E6677C"/>
<path d="M146.395 32.5549L146.5 32.6144L146.375 33.1624C142.59 36.3549 128.41 49.0369 125.085 50.7329C124.345 49.7244 124.14 49.2799 123.58 48.1489C124.565 45.4694 142.485 34.8864 146.395 32.5549Z" fill="#E6677C"/>
<path d="M81.2195 0C82.1195 3.0615 83.9096 25.4435 82.6846 27.5875C81.2796 27.321 80.9545 27.2285 79.6495 26.6515C78.5895 22.5185 80.6345 5.177 81.2195 0Z" fill="#E6677C"/>
<path d="M48.4195 121.71C48.6895 121.828 48.9295 121.935 49.1795 122.095C50.1795 122.739 50.9544 123.184 51.1944 124.371C46.9444 131.31 40.4995 137.764 35.2395 143.977L34.1045 144.908C33.9795 142.886 46.1945 125.193 48.4195 121.71Z" fill="#E6677C"/>
<path d="M125.975 142.425C123.375 139.02 110.945 126.084 111.78 122.832C116.095 120.746 124.8 138.041 127.27 141.992L125.975 142.425Z" fill="#E6677C"/>
<path d="M129.405 14.4834C129.055 16.7154 117.395 34.3019 115.23 37.5069C114.535 38.5399 114.01 38.3009 112.89 38.3109C112.305 37.5219 112.255 37.3984 111.885 36.4839C113.135 32.8574 126.15 18.2934 129.405 14.4834Z" fill="#E6677C"/>
<path d="M36.6948 18.7361C39.6848 22.6021 49.5848 33.2656 50.6898 36.5966C49.9298 37.6331 49.8149 37.7321 48.6199 38.1996C45.8899 36.7151 38.1398 23.4841 35.9448 19.9841L36.6948 18.7361Z" fill="#E6677C"/>
<path d="M31.8496 13.322C33.5846 15.076 35.0946 16.87 36.6946 18.736L35.9446 19.984C34.7846 18.541 32.8646 15.051 31.8496 13.322Z" fill="#E6677C"/>
<path d="M127.27 141.992C128.62 144.008 129.385 145.378 130.505 147.537C129.32 146.216 126.96 143.747 125.975 142.424L127.27 141.992Z" fill="#E6677C"/>
</svg>
