<svg xmlns="http://www.w3.org/2000/svg" width="200" height="200" viewBox="0 0 200 200">
  <defs>
    <pattern id="elat" width="100" height="100" patternUnits="userSpaceOnUse" patternTransform="rotate(0)">
      <rect width="100" height="100" fill="none"/>
      <path d="M10 50 Q30 10 50 50 T90 50" fill="none" stroke="#b8860b" stroke-width="3"/>
      <path d="M10 100 Q30 60 50 100 T90 100" fill="none" stroke="#c0392b" stroke-width="2.5" opacity="0.8"/>
      <path d="M0 25 L20 25 M80 25 L100 25" stroke="#d4af37" stroke-width="2"/>
      <path d="M0 75 L20 75 M80 75 L100 75" stroke="#d4af37" stroke-width="2"/>
      <circle cx="50" cy="75" r="6" fill="none" stroke="#b8860b" stroke-width="2.5"/>
      <rect x="35" y="20" width="30" height="10" rx="3" fill="none" stroke="#c0392b" stroke-width="2" opacity="0.7"/>
      <path d="M25 90 L35 80 L45 90 L55 80 L65 90 L75 80" fill="none" stroke="#b8860b" stroke-width="2"/>
    </pattern>
  </defs>
  <rect width="200" height="200" fill="url(#elat)"/>
</svg>
